<svg xmlns="http://www.w3.org/2000/svg" viewBox="0 0 300 62" aria-label="seibi">
  <g fill="#CD1C1E">
    <!-- S -->
    <rect x="0" y="1" width="31" height="10"/>
    <rect x="0" y="1" width="10" height="21"/>
    <rect x="12" y="20" width="19" height="9"/>
    <rect x="0" y="29" width="10" height="21"/>
    <rect x="0" y="40" width="31" height="10"/>

    <!-- E -->
    <rect x="37" y="1" width="10" height="49"/>
    <rect x="47" y="1" width="25" height="10"/>
    <rect x="47" y="20" width="21" height="9"/>
    <rect x="47" y="38" width="25" height="10"/>

    <!-- i -->
    <rect x="77" y="1" width="9" height="9"/>
    <rect x="78" y="13" width="8" height="37"/>

    <!-- B -->
    <rect x="92" y="1" width="10" height="49"/>
    <rect x="102" y="1" width="24" height="10"/>
    <rect x="116" y="11" width="10" height="11"/>
    <rect x="102" y="20" width="24" height="5"/>
    <rect x="102" y="25" width="24" height="10"/>
    <rect x="116" y="35" width="10" height="15"/>
    <rect x="102" y="42" width="24" height="8"/>

    <!-- i -->
    <rect x="130" y="1" width="9" height="9"/>
    <rect x="131" y="13" width="8" height="37"/>

    <!-- Speed underline -->
    <polygon points="0,56 20,56 44,52 132,52 140,48 148,52 156,48 164,52 172,48 180,52 300,52 300,56"/>
  </g>
</svg>
